<?xml version="1.0" encoding="UTF-8"?>
<svg id="Layer_1" xmlns="http://www.w3.org/2000/svg" version="1.1" viewBox="0 0 763 127.2">
  <!-- Generator: Adobe Illustrator 30.1.0, SVG Export Plug-In . SVG Version: 2.1.1 Build 136)  -->
  <defs>
    <style>
      .st0, .st1 {
        font-family: TextbookNew-Bold, 'Textbook New';
      }

      .st0, .st1, .st2, .st3, .st4 {
        font-weight: 700;
      }

      .st0, .st2, .st3, .st4 {
        font-size: 130px;
      }

      .st1 {
        font-size: 150px;
      }

      .st2 {
        font-family: TextbookNew-BoldItalic, 'Textbook New';
      }

      .st2, .st3 {
        font-style: italic;
      }

      .st5 {
        fill: #fff;
      }

      .st3 {
        font-family: TextbookNew-ExtraBoldItalic, 'Textbook New';
      }

      .st4 {
        font-family: TextbookNew-ExtraBold, 'Textbook New';
      }
    </style>
  </defs>
  <text class="st1" transform="translate(-1426.9 -39.6)"><tspan x="0" y="0">KERN CPH</tspan></text>
  <text class="st4" transform="translate(-764.3 256.2)"><tspan x="0" y="0">KERN CPH</tspan></text>
  <text class="st0" transform="translate(-764.3 403.4)"><tspan x="0" y="0">KERN CPH</tspan></text>
  <text class="st3" transform="translate(18.7 256.2)"><tspan x="0" y="0">KERN CPH</tspan></text>
  <text class="st2" transform="translate(18.7 403.4)"><tspan x="0" y="0">KERN CPH</tspan></text>
  <g>
    <path class="st5" d="M108.2,15.8h27.6l-41.2,40.2,22.8,50.8h-24.4l-15.2-36.8-12,11.7-5.2,25.1h-22.6L57.2,15.8h22.6l-7.8,36.4L108.2,15.8Z"/>
    <path class="st5" d="M168.4,34.7l-3.4,15.5h28.3l-4,19h-28.3l-3.9,18.6h37.2l-4,19h-59.8l19.4-91h58.8l-4,19h-36.1Z"/>
    <path class="st5" d="M230.8,106.8h-22.6l19.4-91h28.7c9.2,0,21.2,1.2,28.9,9,5.3,5.5,6.8,12.1,6.8,18.1,0,10.1-3.9,16.3-7.2,19.5-4.3,4.4-11,7.4-17.2,8.3l11.6,36.1h-23.3l-9.8-32.9h-8.3l-7,32.9ZM249.7,55.9c5.6,0,11-.6,14.3-3.6,2-1.8,3.4-4.7,3.4-8.2s-1.4-6.1-3.4-7.7c-2.7-2.1-7-2.2-9.2-2.2h-8.6l-4.7,21.7h8.2Z"/>
    <path class="st5" d="M318,106.8h-22.1l19.4-91h20l20.4,54.1,11.4-54.1h22.1l-19.4,91h-20l-20.4-54.1-11.4,54.1Z"/>
    <path class="st5" d="M498.4,39.6c-4.2-3.5-10.1-6.9-17.2-6.9s-12.9,2.5-17.7,7.3-12,18.3-12,30.2,3,12.9,5.3,15.2c2.1,2,6,4.4,12.9,4.4s13.9-3.6,16.8-5.7l12,15.9c-6.5,5.1-15.5,9-31.7,9s-21.5-1.8-30.2-11.1c-6.8-7.3-9.8-17.3-9.8-26.9s6.6-32.5,19.1-44.3c10.8-10.1,22.6-12.9,36.8-12.9s19.1,1.4,28.1,9.4l-12.5,16.5Z"/>
    <path class="st5" d="M533.3,106.8h-22.6l19.4-91h30.2c9,0,19.8,1.2,27.3,9,6.4,6.6,7.4,14.6,7.4,19.9,0,11.3-4.5,18.3-8.5,22.2-9.2,9.2-22.9,10-35,10h-11.8l-6.4,29.9ZM553.3,58.3c3.1,0,9.6-.3,13.4-3.6,2.6-2.3,3.8-6.2,3.8-9.6s-2-6.8-3.8-8.2c-3.2-2.6-7.3-2.6-10-2.6h-7.9l-5.2,24.1h9.8Z"/>
    <path class="st5" d="M621.9,106.8h-22.6l19.4-91h22.6l-7.4,34.5h28.6l7.4-34.5h22.6l-19.4,91h-22.6l7.9-37.6h-28.6l-7.9,37.6Z"/>
  </g>
</svg>